<?xml version="1.0" encoding="UTF-8"?>
<svg id="Layer_1" data-name="Layer 1" xmlns="http://www.w3.org/2000/svg" viewBox="0 0 468.37 501.29">
  <defs>
    <style>
      .cls-1 {
        fill: #f59295;
      }

      .cls-2 {
        fill: #f8b463;
      }

      .cls-3 {
        fill: #fab361;
      }

      .cls-4 {
        fill: #fab362;
      }

      .cls-5 {
        fill: #fab562;
      }

      .cls-6 {
        fill: #f9e8cb;
      }

      .cls-7 {
        fill: #040405;
      }

      .cls-8 {
        fill: #040302;
      }

      .cls-9 {
        fill: #050708;
      }

      .cls-10 {
        fill: #e9ae64;
      }

      .cls-11 {
        fill: #fbb463;
      }

      .cls-12 {
        fill: #feecce;
      }

      .cls-13 {
        fill: #fbeacc;
      }

      .cls-14 {
        fill: #fceacc;
      }

      .cls-15 {
        fill: #fdebcd;
      }

      .cls-16 {
        fill: #7cc7df;
      }

      .cls-17 {
        fill: #7bc7df;
      }

      .cls-18 {
        fill: #070507;
      }

      .cls-19 {
        fill: #070404;
      }

      .cls-20 {
        fill: #0a0505;
      }

      .cls-21 {
        fill: #79c5de;
      }

      .cls-22 {
        fill: #7ac6e0;
      }
    </style>
  </defs>
  <g id="BlP7CV">
    <g>
      <path class="cls-18" d="m140.91,34.57c2.79,2.71,5.59,5.43,8.38,8.14.88.95,1.76,1.91,2.65,2.86,1.9,1.88,3.81,3.76,5.71,5.64,12.76,30.88,23.9,36.49,55.5,28.77,5.8-1.42,12.07-.93,18.13-1.32,7.51,0,15.01.01,22.52.02,3.76,0,7.52,0,11.28,0,3.75.05,7.51.1,11.26.15,7.64-8.29,15.28-16.58,22.92-24.87,10.78-10.29,20.65-21.8,32.52-30.61,27.89-20.69,47.67-14.73,61.86,17.24,1.48,3.33,2.32,6.93,3.46,10.41-3.63.02-7.25.03-10.88.05-.75-.04-1.5-.06-2.26-.06-1.21-2.62-2.42-5.24-3.63-7.86-1.08-2-2.17-4-3.25-6-.74-.97-1.48-1.93-2.21-2.9-.94-.95-1.88-1.9-2.83-2.85-4.58,4.74-10.23,8.85-13.52,14.37-6.46,10.82-11.61,22.43-17.3,33.72-1.92-5.72-3.83-11.44-5.75-17.15l.03-.05c.87-2.02,1.74-4.03,2.61-6.05,2.88-7.4,5.77-14.8,8.65-22.2-2.6-2.81-5.21-5.61-9.97-10.75-.65,7.06-.96,10.42-1.27,13.78-6.47,6.58-12.94,13.16-19.41,19.74-1.03.95-2.06,1.9-3.09,2.85l.09-.1c-.95,1.04-1.91,2.08-2.86,3.11-4.56,5.58-9.12,11.15-13.67,16.73-2.01,2.86-4.03,5.72-6.04,8.57,0,.94-.28,1.79-.84,2.55-.69.71-1.37,1.42-2.06,2.13-5.23,1.16-10.41,3.05-15.69,3.35-23.88,1.37-47.79,2.3-71.68,3.39-22.54,3.8-45.07,7.6-67.61,11.4-.98.62-1.96,1.23-2.93,1.85-2.86,1.02-5.72,2.04-8.59,3.06-1.87.94-3.74,1.89-5.61,2.83-10.1,5.23-20.21,10.45-30.31,15.68,0,0-.25.55-.25.56-7.66,6.76-15.31,13.51-22.96,20.27-4.68,5.68-9.36,11.36-14.04,17.04l.08-.11c-1.78,1.14-3.57,2.27-5.35,3.41-2.86-2.95-5.72-5.91-8.58-8.86,5.46-23.47,10.92-46.95,16.38-70.42,1.12-4.62,2.24-9.24,3.37-13.86.73-.99,1.46-1.98,2.19-2.98.98-4.71,1.96-9.43,2.93-14.14.98-2.81,1.96-5.63,2.94-8.44,1.24-3.69,2.48-7.39,3.73-11.08,1.73-3.71,3.46-7.42,5.19-11.13,5.59-5.87,11.17-11.74,16.76-17.62,15.59-.96,30.25,1.22,42.8,11.69,3.06,2.55,6.97,4.07,10.48,6.07Zm-2.62,56.19c-12.23-17.45-24.01-34.79-36.39-51.68-6.29-8.59-12.5-6.37-16.75,2.32-14.44,29.47-22.55,60.71-26.37,91.26,25.14-13.25,50.42-26.58,79.51-41.91Zm-4.6-40.86c-.95.7-1.9,1.41-2.85,2.11,5.61,10.85,11.03,21.8,16.87,32.52,4.67,8.58,10.27,7.11,17.31.31-10.75-11.99-21.04-23.47-31.33-34.95Zm220.29-25.47c-.24.76-.84,1.66-.6,2.13.28.56,1.3.76,1.99,1.11.22-.67.81-1.55.57-1.96-.34-.6-1.27-.87-1.97-1.28Zm-98.15,62.1c.4.14.8.38,1.2.37.13,0,.25-.64.37-.99-.4-.14-.8-.38-1.2-.37-.13,0-.25.64-.37.99Z"/>
      <path class="cls-7" d="m208.8,490.88c-1.9-.31-3.8-.62-5.7-.93-5.68-9.78-13.03-4.48-20.04-2.21-1.77-.21-3.54-.42-5.31-.62-1.62-1.58-3.24-3.16-4.87-4.74l-3.6,4.73c-.93.01-1.87.02-2.8.03l-1.59-5.58c-.44,1.17-.89,2.34-1.33,3.5-1.84-.28-3.69-.56-5.53-.83-2.77-.99-5.55-1.98-8.32-2.98l-2.94.18c-2.69-4.29-5.38-8.58-9.39-14.98-.99,5.09-1.46,7.55-1.94,10-1.86-.21-3.72-.42-5.57-.62-.47-1.12-.94-2.25-1.41-3.37-.47,1.12-.95,2.25-1.42,3.37l-1.22.44-1.29-.07c-1.02-1.7-2.04-3.4-3.06-5.09-.94-.32-1.88-.63-2.82-.95-12.28-7.17-24.57-14.35-36.85-21.52-1.84-1.04-3.68-2.07-5.52-3.11-4.74-4.58-9.49-9.16-14.23-13.74,1.07-4.09,2.13-8.17,3.2-12.26,32.02,29.05,69.72,47.3,112.12,53.34,22.35,3.19,45.57.28,68.39.12,2.57-.02,5.14-.05,7.71-.07,20.81-4.48,41.62-8.96,62.43-13.44,1.85-.19,3.7-.37,5.55-.56,1.03-.74,2.05-1.47,3.08-2.21,31.52-7.98,58.3-24.58,82.72-45.47,23.28-19.92,34.56-46.29,40.54-75.5,1.11-2.96,3.07-5.88,3.2-8.89,1.03-24.3,1.72-48.62,2.52-72.93-1.1-5.59-2.19-11.19-3.29-16.78-.75-2.76-1.5-5.51-2.25-8.27-1.65-2.96-3.31-5.92-4.96-8.89-.4-.85-.64-1.75-.73-2.68-.92-2.82-1.85-5.63-2.77-8.45l.08.08c-1.11-2.81-2.22-5.63-3.33-8.44-3.58-5.62-7.15-11.24-10.73-16.86-1.08-1.91-2.15-3.82-3.23-5.73-.8-.91-1.6-1.82-2.4-2.73-1.07-1.89-2.14-3.79-3.2-5.68l.25.3c-3.77-3.87-7.54-7.73-11.3-11.6l.15.09-2.91-2.97.1.15c-.98-1-1.96-1.99-2.94-2.99-1.88-1.75-3.76-3.51-5.63-5.26,6.56-3.29,13.11-6.57,21.46-10.76-4.71-3.59-8.54-6.5-12.37-9.41-.88-3.78-1.76-7.56-2.64-11.34-.27-1.81-.53-3.63-.8-5.44,0,0,.08.06.08.06-.73-.99-1.46-1.97-2.2-2.96.06-.99.11-1.97.17-2.96-.34-2.75-.69-5.49-1.03-8.24-1.55-4.72-3.1-9.45-4.65-14.17,4.52-.03,9.04-.06,13.55-.09,1.76,4.75,3.52,9.5,5.28,14.26,1.06,7.74,1.5,15.63,3.3,23.19,3.45,14.44,6.4,29.21,11.98,42.84,4.28,10.45,13.95,18.67,18.29,29.11,8.86,21.32,15.75,43.46,23.45,65.27.02,1.9.04,3.79.06,5.69,0,14.08-.01,28.16-.02,42.24-.17,29.91-9.3,57.35-22.93,83.56-5.54,7.83-11.08,15.66-16.62,23.48l-3.59,5.47c-15.83,11.39-31.65,22.78-47.48,34.16-3.75,1.96-7.5,3.91-11.25,5.87-16.05,6.21-32.09,12.43-48.14,18.64-36.52,5.06-73.03,10.12-109.55,15.18Z"/>
      <path class="cls-9" d="m62.05,431.78c-11.17-13.4-22.34-26.79-33.5-40.19-.84-.91-1.69-1.82-2.53-2.73-4.06-12.22-8.09-24.46-12.39-36.6-.11-.32-3.19.41-4.89.65-6.75-8.1-5.74-16.89-2.3-25.9,4.38-1.87,8.76-3.74,13.15-5.61,1.27,4.67,2.53,9.33,3.8,14-.02.98-.05,1.95-.07,2.93l2.21,3.14c0,.88.22,1.7.65,2.46,4.98,29.36,22.09,52.44,39.07,75.59-1.07,4.09-2.13,8.17-3.2,12.26Z"/>
      <path class="cls-7" d="m12.25,211.69c.58-1.03,1.17-2.06,1.75-3.09,1.97-5.62,3.94-11.24,5.92-16.86,1.19-2.78,2.37-5.57,3.56-8.35,1.6-2.9,3.2-5.81,4.8-8.71,0,0-.12.13-.12.13,1-.97,2.01-1.93,3.01-2.9,0,0-.16.13-.16.13,1.03-1.83,2.06-3.66,3.08-5.49,0,0,.04-.05.04-.05,2.86,2.95,5.72,5.91,8.58,8.86-1.81,3.68-3.62,7.36-5.43,11.03-9.8-.32-11.24,3.65-5.75,11.19-1.07,3.71-2.14,7.42-3.21,11.12-.62,1.01-1.25,2.02-1.87,3.02-.3.89-.61,1.78-.91,2.67-.85,1.07-1.7,2.15-2.55,3.22-.12.83,0,1.63.35,2.39,0,1.88-.01,3.76-.02,5.64-.31,1.83-.63,3.65-.94,5.48-.59,2.89-1.19,5.79-1.78,8.68-1.02,1.89-2.03,3.79-3.05,5.68-3.74.9-7.47,1.8-11.21,2.7-.08-5.62-.16-11.23-.24-16.85,1.05-3.77,2.1-7.55,3.15-11.32,1-2.77,1.99-5.54,2.99-8.31Z"/>
      <path class="cls-8" d="m6.53,313.03c-.49-.76-.74-1.6-.74-2.5-.74-1.06-1.48-2.11-2.22-3.17,0-15.03,0-30.07,0-45.1,4.39-.94,8.78-1.87,13.18-2.81-.01,5.66-.03,11.32-.04,16.98,0,3.7-.01,7.4-.02,11.1.21,8.36.42,16.72.63,25.08.7,1.1,1.39,2.2,2.09,3.3l1.11-.1c-.31,1.87-.62,3.74-.93,5.6-4.38,1.87-8.76,3.74-13.15,5.61-.33-1.87-.66-3.74-.99-5.61.35-.97.7-1.94,1.06-2.91,0-1.82.02-3.64.02-5.46Z"/>
      <path class="cls-7" d="m386.22,51.05c3.63-.02,7.25-.03,10.88-.05,2.11,7.48,4.22,14.95,6.34,22.43-4.06.1-8.11.2-12.17.3l-4.53-11.51c.29-.33.89-.84.82-.94-.39-.64-.94-1.19-1.43-1.77h.02c.03-2.81.06-5.63.08-8.45Z"/>
      <path class="cls-20" d="m391.26,73.72c4.06-.1,8.11-.2,12.17-.3.85,2.83,1.7,5.65,2.55,8.48-4.52.03-9.04.06-13.55.09-.39-2.76-.78-5.51-1.17-8.27Z"/>
      <path class="cls-9" d="m183.06,487.73c7.01-2.27,14.36-7.57,20.04,2.21-6.68-.74-13.36-1.47-20.04-2.21Z"/>
      <path class="cls-9" d="m135.44,476.45c.48-2.45.95-4.9,1.94-10,4.01,6.4,6.7,10.69,9.39,14.98-3.78-1.66-7.55-3.32-11.33-4.98Z"/>
      <path class="cls-9" d="m169.29,487.1l3.6-4.73c1.62,1.58,3.24,3.16,4.87,4.74-2.82,0-5.64-.01-8.46-.02Z"/>
      <path class="cls-9" d="m149.71,481.25c2.77.99,5.55,1.98,8.32,2.98-2.77-.99-5.55-1.98-8.32-2.98Z"/>
      <path class="cls-18" d="m12.25,211.69c-1,2.77-1.99,5.54-2.99,8.31.06-1.79.13-3.57.19-5.36.93-.98,1.87-1.97,2.8-2.95Z"/>
      <path class="cls-9" d="m163.57,485.06c.44-1.17.89-2.34,1.33-3.5l1.59,5.58c-.97-.69-1.95-1.38-2.92-2.07Z"/>
      <path class="cls-9" d="m127.04,475.82c.47-1.12.95-2.25,1.42-3.37.47,1.12.94,2.25,1.41,3.37-.94,0-1.89,0-2.83,0Z"/>
      <path class="cls-16" d="m0,17.04c.98-1.08,1.95-2.16,2.93-3.25-.98,1.08-1.95,2.16-2.93,3.25Z"/>
      <path class="cls-17" d="m13.77,2.93c1.09-.98,2.17-1.95,3.26-2.93-1.09.98-2.17,1.95-3.26,2.93Z"/>
      <path class="cls-21" d="m56.07,79.22c-.73.99-1.46,1.98-2.19,2.98.73-.99,1.46-1.98,2.19-2.98Z"/>
      <path class="cls-22" d="m434.3,493.29c-1,.95-2.01,1.91-3.01,2.86,1-.95,2.01-1.91,3.01-2.86Z"/>
      <path class="cls-22" d="m428.46,498.87c-.92.81-1.84,1.61-2.76,2.42.92-.81,1.84-1.61,2.76-2.42Z"/>
      <path class="cls-11" d="m20.61,239.79c.59-2.89,1.19-5.79,1.78-8.68,1.64-.96,3.28-1.92,4.92-2.88-1.33-.87-2.66-1.73-3.98-2.6,0-1.88.01-3.76.02-5.64,1.04-2.76,2.07-5.52,3.11-8.28.62-1.01,1.25-2.02,1.87-3.02,6.62-1.86,13.23-3.72,19.85-5.58.7.99,1.41,1.98,2.11,2.97-.7-.99-1.41-1.98-2.11-2.97-.04-10.39-.08-20.77-.12-31.16,0,0-.08.11-.08.11,5.7-4.67,11.4-9.34,17.1-14.01,2.64,1.75,5.27,3.5,6.48,4.3,3.39-6.92,6.9-14.05,10.4-21.19.73,2.5,1.46,5.01,2.18,7.51,1.13-.76,2.26-1.51,3.39-2.27-1.85-1.76-3.69-3.51-5.54-5.27,1-2.13,2-4.26,3-6.39,0,0,.25-.55.25-.55,8.8,1.55,17.59,3.1,28.99,5.1.45-7.09.88-13.94,1.32-20.78,1.87-.94,3.74-1.89,5.61-2.83,2.86-1.02,5.72-2.04,8.59-3.06.98-.62,1.96-1.23,2.93-1.85,3.75,1.67,7.46,4.71,11.24,4.79,21,.47,42.01.23,64.82.23-2.65-5.14-5.55-10.78-8.46-16.42,23.9-1.09,47.8-2.01,71.68-3.39,5.28-.3,10.46-2.19,15.69-3.35.69-.71,1.37-1.42,2.06-2.13.56-.76.84-1.6.84-2.55,2.01-2.86,4.03-5.72,6.04-8.57,4.56-5.58,9.12-11.15,13.67-16.73.95-1.04,1.91-2.08,2.86-3.11,0,0-.09.1-.09.1,1.03-.95,2.06-1.9,3.09-2.85,6.47-6.58,12.94-13.16,19.41-19.74,3.75-1.01,7.49-2.02,11.24-3.04-2.88,7.4-5.77,14.8-8.65,22.2-.87,2.02-1.74,4.03-2.61,6.05,0,0-.03.05-.03.05-1.86,4.51-3.97,8.93-5.55,13.54-12.04,35.09-15.5,26.3,22.21,40.61,3.86,2.42,7.72,4.84,11.57,7.27,3.68,2.25,7.35,4.49,11.03,6.74.88.8,1.77,1.59,2.65,2.39,5.67,4.79,11.33,9.58,17,14.38l5.63,5.26c.98,1,1.96,1.99,2.94,2.99,0,0-.1-.15-.1-.15.97.99,1.94,1.98,2.91,2.97,0,0-.15-.09-.15-.09,3.77,3.87,7.54,7.73,11.3,11.6,0,0-.25-.3-.25-.3,1.07,1.89,2.13,3.79,3.2,5.68.8.91,1.6,1.82,2.4,2.73,1.08,1.91,2.15,3.82,3.23,5.73,3.58,5.62,7.15,11.24,10.73,16.85.07,1.81.15,3.62.22,5.42-.48,8.56-1.42,17.12-1.29,25.67.1,6.26,1.61,12.5,3.04,22.6,6.51,4.67,3.35,11.24-3.83,19.9-7.88,9.51-15.5.98-23.01,2.31-14.97-7.71-29.94-15.42-44.92-23.13-1.43-7.29-2.86-14.59-3.75-19.15-14.86-1.26-28.75-2.44-43.07-3.66,1.1-7.68,2-13.98,2.99-20.89,6.6-.48,12.54-.91,18.39-1.33.91-4.31,2.77-8.45,2.28-12.28-.38-2.97-3.69-5.56-5.69-8.32-8.03,7.13-9.54-1.56-11.35-5.5-4.99-10.79-9.6-21.86-13.06-33.21-1.91-6.25-2.58-10.37-9.15-4.11-10.05-.25-20.09-.5-30.14-.74-15.53-4.67-21.45.06-20.09,14.97.85,9.39.16,18.92.16,29.97-7.02,0-12.04,0-17.06,0-1.23-.35-2.45-.69-3.67-1.04,1.22.35,2.44.71,3.66,1.06-.93,5.63-1.85,11.27-2.78,16.9-1.85.95-3.7,1.9-5.55,2.84-7.9.07-17.07-2.42-23.42.75-12.88,6.45-17.2-.72-21.94-9.66,2.29-9.64-2.97-11.87-11.09-11.3-2.81-6.41-5.62-12.82-8.44-19.23-1.25-19.82-10.89-27.89-33.62-28.13-3.19.17-6.38.34-9.84.52-.62,6.17-.34,11.93-2.07,16.99-.92,2.7-5.89,6.41-8.1,5.86-12.41-3.04-13.74,4.8-13.87,13.34-.31,19.66-.12,39.32-.13,58.98h-21.2c-.06,1.06-.13,2.12-.19,3.18,2.02,1.57,4.03,3.15,6.06,4.73-2.46,3.08-4.82,6.04-7.19,8.99-4.69,0-9.39,0-14.08.01-.94.94-1.88,1.87-2.81,2.81h0c-4.69,0-9.39,0-14.08,0h-5.63c-1.88,0-3.76,0-5.64,0-3.56-5.61-7.11-11.22-10.67-16.83Zm42.16-62.01c-.77,1.2-2.06,2.38-1.84,3.06.3.92,2.23,2.24,2.64,2,1.19-.69,1.96-2.09,2.9-3.21-1.1-.55-2.2-1.09-3.7-1.84Z"/>
      <path class="cls-1" d="m138.29,90.76c-29.09,15.33-54.38,28.66-79.51,41.91,3.82-30.56,11.93-61.79,26.37-91.26,4.26-8.69,10.46-10.91,16.75-2.32,12.38,16.89,24.15,34.23,36.39,51.68Z"/>
      <path class="cls-1" d="m391.26,73.72c.39,2.76.78,5.51,1.17,8.27,1.55,4.72,3.1,9.45,4.65,14.17.34,2.75.69,5.49,1.03,8.24-.06.99-.11,1.97-.17,2.96.73.99,1.46,1.97,2.2,2.96,0,0-.08-.06-.08-.06.27,1.81.53,3.63.8,5.44.88,3.78,1.76,7.56,2.64,11.34-.3,2.25-.61,4.51-.94,6.95-2.78-.64-5.27-1.21-7.76-1.78l-3.35-3.68c-.23-.52-.6-.89-1.12-1.11-1.34-1.08-2.67-2.17-4.01-3.25-.94-.99-1.87-1.97-2.81-2.96l.04.03c-.98-.69-1.95-1.37-2.93-2.06-1.89-1.15-3.79-2.3-5.68-3.44-.93-.73-1.85-1.47-2.78-2.2-.92-.29-1.85-.59-2.77-.88-2.83-1.79-5.66-3.59-8.49-5.38l-.03-.02c-9.21-7.39-29.64-6.86-19.65-27.82,5.69-11.28,10.84-22.89,17.3-33.72,3.29-5.51,8.93-9.62,13.52-14.37.94.95,1.88,1.9,2.83,2.85.74.97,1.48,1.93,2.21,2.9,1.08,2,2.17,4,3.25,6,1.21,2.62,2.42,5.24,3.63,7.86.72,2.84,1.45,5.68,2.17,8.52,0,0-.02-.01-.02-.01.06.94.26,1.84.61,2.72,1.51,3.84,3.02,7.67,4.53,11.51Z"/>
      <path class="cls-4" d="m200.29,99.36c2.9,5.64,5.81,11.27,8.46,16.42-22.81,0-43.83.25-64.82-.23-3.78-.08-7.5-3.12-11.24-4.79,22.54-3.8,45.07-7.6,67.61-11.4Z"/>
      <path class="cls-20" d="m341.23,79.45c-9.99,20.95,10.43,20.43,19.65,27.82-2.91,3.06-5.82,6.12-8.73,9.18-37.71-14.31-34.26-5.52-22.21-40.61,1.58-4.61,3.69-9.03,5.55-13.54,1.92,5.72,3.83,11.44,5.75,17.15Z"/>
      <path class="cls-10" d="m133.68,49.9c10.29,11.48,20.58,22.96,31.33,34.95-7.04,6.8-12.63,8.27-17.31-.31-5.84-10.72-11.27-21.67-16.87-32.52.95-.7,1.9-1.41,2.85-2.11Z"/>
      <path class="cls-4" d="m48.06,171.94c.04,10.39.08,20.77.12,31.16h0c-6.62,1.87-13.23,3.73-19.85,5.59,1.07-3.71,2.14-7.42,3.21-11.12,1.92-3.73,3.83-7.46,5.75-11.19,1.81-3.68,3.62-7.36,5.43-11.03,1.78-1.14,3.57-2.27,5.35-3.41Z"/>
      <path class="cls-4" d="m115.55,118.5c-.43,6.85-.87,13.7-1.32,20.78-11.39-2-20.19-3.55-28.99-5.1,10.1-5.23,20.2-10.46,30.31-15.68Z"/>
      <path class="cls-4" d="m81.96,141.14c-3.5,7.14-7.01,14.28-10.4,21.19-1.21-.8-3.84-2.55-6.48-4.3h-.01c-.78-.79-1.56-1.57-2.34-2.35l-.71-.68c7.65-6.75,15.3-13.51,22.96-20.27-1,2.12-1.99,4.25-2.99,6.38,0,0-.03.03-.03.03Z"/>
      <path class="cls-4" d="m65.08,158.03c-5.7,4.67-11.4,9.34-17.1,14.01,4.68-5.68,9.36-11.36,14.04-17.04,0,0,.71.68.71.68.78.78,1.56,1.56,2.34,2.34h.01Z"/>
      <path class="cls-20" d="m346.78,34c-3.75,1.01-7.49,2.02-11.24,3.04.31-3.36.62-6.73,1.27-13.79,4.76,5.13,7.36,7.94,9.97,10.75Z"/>
      <path class="cls-20" d="m296.59,79.38c-2.01,2.86-4.03,5.72-6.04,8.57,2.01-2.86,4.03-5.72,6.04-8.57Z"/>
      <path class="cls-20" d="m386.13,59.51c-.72-2.84-1.45-5.68-2.17-8.52.75,0,1.5.02,2.26.06-.03,2.82-.06,5.64-.08,8.46Z"/>
      <path class="cls-20" d="m353.97,24.43c.69.42,1.63.68,1.97,1.28.23.41-.35,1.29-.57,1.96-.7-.35-1.71-.55-1.99-1.11-.24-.48.36-1.38.6-2.13Z"/>
      <path class="cls-4" d="m129.74,112.61c-2.86,1.02-5.72,2.04-8.59,3.06,2.86-1.02,5.72-2.04,8.59-3.06Z"/>
      <path class="cls-20" d="m335.51,62.25c.87-2.02,1.74-4.03,2.61-6.05-.87,2.02-1.74,4.03-2.61,6.05Z"/>
      <path class="cls-20" d="m255.82,86.53c.12-.35.24-.99.37-.99.4-.01.8.23,1.2.37-.12.35-.24.99-.37.99-.4.01-.8-.23-1.2-.37Z"/>
      <path class="cls-20" d="m380.33,43.13c-1.08-2-2.17-4-3.25-6,1.08,2,2.17,4,3.25,6Z"/>
      <path class="cls-20" d="m374.87,34.22c-.94-.95-1.88-1.9-2.83-2.85.94.95,1.88,1.9,2.83,2.85Z"/>
      <path class="cls-20" d="m289.71,90.5c-.69.71-1.37,1.42-2.06,2.13.69-.71,1.37-1.42,2.06-2.13Z"/>
      <path class="cls-20" d="m313.13,59.53c-.95,1.04-1.91,2.08-2.86,3.11.95-1.04,1.91-2.08,2.86-3.11Z"/>
      <path class="cls-20" d="m316.13,56.78c-1.03.95-2.06,1.9-3.09,2.85,1.03-.95,2.06-1.9,3.09-2.85Z"/>
      <path class="cls-12" d="m228.56,208.77c1.85-.95,3.7-1.9,5.55-2.84,11.03-9.22,22.24-13.36,35.03-2.64,2.4,2.01,6.78,1.64,10.25,2.38l2.91,2.94c-2.19,6.85-4.37,13.7-7.61,23.85,10.53-1.68,17.04-2.72,23.54-3.76,6.31,5.53,11.79,13.92,19.08,16.01,15.9,4.55,32.72,5.9,49.16,8.56,14.97,7.71,29.94,15.42,44.92,23.13,7.75,11.4,15.84,22.59,23.14,34.28,4.99,8,8.88,16.69,13.26,25.06-5.98,29.21-17.26,55.58-40.54,75.5-24.42,20.89-51.2,37.49-82.72,45.47-1.03.74-2.05,1.47-3.08,2.21-1.85.19-3.7.37-5.55.56-10,.58-20.58,3.49-29.85,1.17-13.07-3.27-19.96,11.38-31.94,8.15-.21,1.37-.42,2.75-.64,4.12-2.57.02-5.14.05-7.71.07-.72-1.17-1.28-3.23-2.18-3.39-26.48-4.81-52.75-12.43-80.02-9.25-14.63,1.71-24.34-6.22-23.7-22.77-8.92-.87-20.36-5.63-26.61-1.84-12.69,7.7-16.58-1.02-22.69-7.29-2.22-2.28-3.64-7.25-5.73-7.43-12.77-1.09-11.3-10.03-11.35-18.51-.03-4.05-.6-8.09-.9-11.85-23.35-3.86-22.15-4.15-27.95-27.87-1.8-7.35-12.06-12.62-18.45-18.84-.43-.76-.65-1.58-.65-2.46-.74-1.05-1.47-2.09-2.21-3.14.02-.98.05-1.95.07-2.93,5.1-8.17,6.67-20.49,21.2-17.73.75.14,3.2-4.1,3.41-6.43,1.15-12.65,1.85-25.33,2.71-38,0,0,.07.08.08.08,14.96,1.01,29.91,2.01,44.87,3.02,1.12,5.52,2.25,11.04,3.37,16.55-.77,8.99-1.54,17.98-2.64,30.78,4.3-5.39,6.1-7.65,7.48-9.37,5.41,1.51,10.21,2.85,15,4.19.92-.02,1.77.21,2.55.7,1.54,7.25.7,16.78,5.06,21.31,11.77,12.22,16.75-10.29,28.79-5.65-1.26-5.81-2.12-9.79-2.98-13.76l8.57-4.84c10.8,10.24,22.84.8,34.19,2.16,4.58.94,9.17,1.88,13.75,2.82,1.44,6.11.96,14.07,4.71,17.94,8.23,8.49,49.31,5,59.6-2.89-1.86-5.05-3.53-9.6-5.21-14.16,1.81-.26,3.62-.52,5.43-.79.99-.7,1.97-1.4,2.96-2.11,3.72-2.22,7.43-4.45,11.15-6.67.8,2.71,1.6,5.41,3.25,11,4.31-9.1,11.25-14.46,3.05-21.88,1.79-5.05,4.67-10,5.14-15.17.82-9.05,1.07-19.05-13.46-14.97,1.09,11.38,1.08,22.28-8.99,30.17-3.19-.25-6.83-1.62-9.5-.56-11.5,4.6-26.47-5.51-35.62,8.46-.95.02-1.89.04-2.84.06-2.37-3.59-4.73-7.18-7.1-10.76-3.27,2.65-6.55,5.3-9.82,7.95-7.5-2.87-15.01-5.73-22.51-8.6-2.2-9.01-8.95-18.39,3.14-24.96,5.43-.96,12.61-1.64,15.63-5.54,6.28-8.12,9.49-18.59,15.58-26.9,6.96-9.49,9.96-18.68,4.9-29.7.02-.81.12-1.6.27-2.4Zm15.94,253.47c.9-1.09,2.28-2.05,2.19-2.83-.11-.87-1.94-2.39-2.35-2.2-1.26.59-2.21,1.87-3.27,2.88,1.03.64,2.05,1.28,3.44,2.15Z"/>
      <path class="cls-13" d="m26.17,343.93c6.39,6.22,16.65,11.5,18.45,18.84,5.8,23.71,4.6,24.01,27.95,27.87.3,3.75.88,7.8.9,11.85.05,8.48-1.42,17.41,11.35,18.51,2.09.18,3.51,5.15,5.73,7.43,6.11,6.27,10,14.99,22.69,7.29,6.25-3.79,17.69.97,26.61,1.84-.64,16.56,9.07,24.48,23.7,22.77,27.26-3.18,53.54,4.44,80.02,9.25.9.16,1.46,2.22,2.18,3.39-22.83.16-46.04,3.07-68.39-.12-42.4-6.04-80.1-24.3-112.12-53.34-16.98-23.15-34.09-46.24-39.07-75.59Zm105.84,98c-.73-.19-1.46-.37-2.18-.56-.46,1.68-.92,3.36-1.38,5.04.78.2,1.57.4,2.35.6.4-1.69.8-3.39,1.21-5.08Z"/>
      <path class="cls-5" d="m447.78,335.74c-4.38-8.38-8.27-17.07-13.26-25.06-7.3-11.69-15.39-22.88-23.14-34.28,7.51-1.33,15.13,7.19,23.01-2.31,7.18-8.66,10.34-15.24,3.83-19.9-1.43-10.1-2.94-16.33-3.04-22.6-.13-8.55.81-17.11,1.29-25.67,1.04,1.01,2.07,2.01,3.11,3.02,0,0-.08-.08-.08-.08.92,2.82,1.85,5.63,2.77,8.45.09.94.33,1.83.73,2.68,1.65,2.96,3.31,5.92,4.96,8.89.75,2.76,1.5,5.51,2.25,8.27,1.1,5.59,2.19,11.19,3.29,16.78-.8,24.31-1.49,48.63-2.52,72.93-.13,3-2.09,5.93-3.2,8.89Z"/>
      <path class="cls-13" d="m253.46,472.91c.21-1.37.42-2.75.64-4.12,11.97,3.23,18.87-11.42,31.94-8.15,9.27,2.32,19.86-.59,29.85-1.17-20.81,4.48-41.62,8.96-62.43,13.44Z"/>
      <path class="cls-20" d="m394.8,132.22c2.49.57,4.98,1.14,7.76,1.78.33-2.45.63-4.7.94-6.95,3.83,2.91,7.66,5.83,12.37,9.41-8.35,4.19-14.91,7.47-21.46,10.76-5.67-4.79-11.33-9.58-17-14.38,4.31-1.8,8.62-3.6,12.93-5.4.52.22.9.59,1.12,1.11-.09,2.37-.17,4.74-.25,7.11,1.2-1.14,2.4-2.29,3.6-3.43Z"/>
      <path class="cls-20" d="m453.5,253.92c-1.1-5.59-2.19-11.19-3.29-16.78,1.1,5.59,2.19,11.19,3.29,16.78Z"/>
      <path class="cls-20" d="m416.93,169.8c-3.77-3.87-7.53-7.73-11.3-11.6,3.77,3.87,7.54,7.73,11.3,11.6Z"/>
      <path class="cls-20" d="m442.27,217.3c-.92-2.82-1.85-5.63-2.77-8.45l2.77,8.45Z"/>
      <path class="cls-20" d="m447.96,228.87c-1.65-2.96-3.31-5.92-4.96-8.89,1.65,2.96,3.31,5.92,4.96,8.89Z"/>
      <path class="cls-9" d="m81.8,448.62c-1.84-1.04-3.68-2.07-5.52-3.11,1.84,1.04,3.68,2.07,5.52,3.11Z"/>
      <path class="cls-20" d="m398.11,104.41c-.34-2.75-.69-5.49-1.03-8.24.34,2.75.69,5.49,1.03,8.24Z"/>
      <path class="cls-20" d="m439.57,208.93c-1.04-1.01-2.07-2.01-3.11-3.02-.07-1.81-.15-3.62-.22-5.42,1.11,2.81,2.22,5.63,3.33,8.44Z"/>
      <path class="cls-20" d="m419.89,175.17c-1.07-1.89-2.13-3.79-3.2-5.68,1.07,1.89,2.13,3.79,3.2,5.68Z"/>
      <path class="cls-20" d="m425.52,183.64c-1.08-1.91-2.15-3.82-3.23-5.73,1.08,1.91,2.15,3.82,3.23,5.73Z"/>
      <path class="cls-20" d="m400.86,115.7c-.27-1.81-.53-3.63-.8-5.44.27,1.81.53,3.63.8,5.44Z"/>
      <path class="cls-13" d="m321.44,458.91c1.03-.74,2.05-1.47,3.08-2.21-1.03.74-2.05,1.47-3.08,2.21Z"/>
      <path class="cls-20" d="m400.14,110.32c-.73-.99-1.46-1.97-2.2-2.96.73.99,1.46,1.97,2.2,2.96Z"/>
      <path class="cls-9" d="m121.47,471.09c-.94-.32-1.88-.63-2.82-.95.94.32,1.88.63,2.82.95Z"/>
      <path class="cls-20" d="m402.98,155.46c-.98-1-1.96-1.99-2.94-2.99.98,1,1.96,1.99,2.94,2.99Z"/>
      <path class="cls-20" d="m405.78,158.29c-.97-.99-1.94-1.98-2.91-2.97.97.99,1.94,1.98,2.91,2.97Z"/>
      <path class="cls-14" d="m50.69,273.24c-.86,12.67-1.55,25.36-2.71,38.01-.21,2.33-2.66,6.57-3.41,6.43-14.53-2.76-16.1,9.56-21.2,17.73-1.27-4.67-2.53-9.33-3.8-14,.31-1.87.62-3.74.93-5.61,2.5-4.04,4.77-8.25,7.56-12.09,7.42-10.24,15.07-20.32,22.62-30.47Z"/>
      <path class="cls-13" d="m23.31,338.33c.74,1.05,1.47,2.09,2.21,3.14-.74-1.05-1.47-2.09-2.21-3.14Z"/>
      <path class="cls-7" d="m16.74,259.44c-4.39.94-8.78,1.87-13.18,2.81.59-2.89,1.19-5.78,1.78-8.67,3.8,1.01,7.6,2.02,11.4,3.03,0,.94,0,1.88,0,2.83Z"/>
      <path class="cls-8" d="m16.75,256.61c-3.8-1.01-7.6-2.02-11.4-3.03.33-1.8.67-3.6,1-5.41,3.74-.9,7.47-1.8,11.21-2.7-.27,3.71-.54,7.43-.81,11.14Z"/>
      <path class="cls-9" d="m6.53,313.03c0,1.82-.02,3.64-.02,5.46,0-1.82.02-3.64.02-5.46Z"/>
      <path class="cls-9" d="m3.57,307.35c.74,1.06,1.48,2.11,2.22,3.17-.74-1.06-1.48-2.11-2.22-3.17Z"/>
      <path class="cls-18" d="m19.92,191.73c-1.97,5.62-3.94,11.24-5.92,16.86,1.97-5.62,3.94-11.24,5.92-16.86Z"/>
      <path class="cls-18" d="m28.28,174.66c-1.6,2.91-3.2,5.81-4.8,8.71,1.6-2.91,3.2-5.81,4.8-8.71Z"/>
      <path class="cls-18" d="m34.09,166.53c-1.03,1.83-2.06,3.66-3.08,5.49,1.03-1.83,2.06-3.66,3.08-5.49Z"/>
      <path class="cls-18" d="m31.17,171.9c-1,.97-2.01,1.93-3.01,2.9,1-.97,2.01-1.93,3.01-2.9Z"/>
      <path class="cls-2" d="m16.75,256.61l.81-11.14c1.02-1.89,2.03-3.79,3.05-5.68,3.56,5.61,7.11,11.22,10.67,16.83-.04,1.68-.09,3.36-.14,5.03,1.92-1.68,3.85-3.35,5.77-5.03h5.63c-.58,8.08,3.15,11.85,11.25,11.26-1.01,1.81-2.01,3.63-3.02,5.44,0,0-.07-.07-.07-.08-7.56,10.14-15.2,20.23-22.63,30.47-2.78,3.84-5.05,8.05-7.56,12.09,0,0-1.11.1-1.11.1-.7-1.1-1.39-2.2-2.09-3.3-.21-8.36-.42-16.72-.63-25.08,0-3.7.01-7.4.02-11.1.01-5.66.03-11.32.04-16.98,0-.94,0-1.88,0-2.83Z"/>
      <path class="cls-18" d="m37.29,186.38c-1.92,3.73-3.83,7.46-5.75,11.19-5.49-7.54-4.05-11.51,5.75-11.19Z"/>
      <path class="cls-2" d="m23.33,225.63c1.33.87,2.66,1.73,3.98,2.6-1.64.96-3.28,1.92-4.92,2.88.31-1.83.63-3.65.94-5.48Z"/>
      <path class="cls-4" d="m26.46,211.71c-1.04,2.76-2.07,5.52-3.11,8.28-.36-.76-.48-1.56-.35-2.39.85-1.07,1.7-2.15,2.55-3.22.3-.89.61-1.78.91-2.67Z"/>
      <path class="cls-18" d="m25.55,214.38c-.85,1.07-1.7,2.15-2.55,3.22.85-1.07,1.7-2.15,2.55-3.22Z"/>
      <path class="cls-9" d="m16.7,276.41c0,3.7-.01,7.4-.02,11.1,0-3.7.01-7.4.02-11.1Z"/>
      <path class="cls-9" d="m17.32,312.6c.7,1.1,1.39,2.2,2.09,3.3-.7-1.1-1.39-2.2-2.09-3.3Z"/>
      <path class="cls-20" d="m386.73,62.21c-.35-.87-.56-1.78-.61-2.72.49.58,1.04,1.13,1.43,1.77.07.11-.53.62-.82.94Z"/>
      <path class="cls-3" d="m279.38,205.67c-3.47-.73-7.85-.37-10.25-2.38-12.79-10.72-23.99-6.58-35.03,2.64.93-5.63,1.85-11.27,2.78-16.9l.02-.02h17.06c0-11.05.69-20.58-.16-29.97-1.36-14.92,4.56-19.64,20.09-14.97-1.45,1.8-3.65,3.41-4.19,5.45-1.54,5.86-5.22,13.94-2.78,17.34,2.78,3.87,11.56,5.6,17.24,4.8,13.29-1.88,20.23-12.42,19.87-26.85,6.57-6.26,7.24-2.14,9.15,4.11,3.46,11.35,8.08,22.42,13.06,33.21,1.82,3.94,3.33,12.63,11.35,5.5,2.01,2.76,5.32,5.36,5.69,8.32.49,3.84-1.37,7.97-2.28,12.28-5.85.42-11.79.85-18.39,1.33-.99,6.91-1.89,13.21-2.99,20.89,14.33,1.22,28.22,2.4,43.07,3.66.89,4.56,2.32,11.85,3.75,19.15-16.44-2.66-33.26-4.01-49.16-8.56-7.29-2.09-12.78-10.48-19.08-16.01-1.65-4.14-3.31-8.29-4.97-12.43,3.72.33,8.93,2.39,10.89.7,7.23-6.27,16.77-12.84,19.05-21.07,2.72-9.82-6.69-17.78-16.31-20.69-10.66-3.22-19.36,2.09-23.87,11.79-2.6,5.58-2.51,12.41-3.63,18.67Z"/>
      <path class="cls-2" d="m96.04,236.89c.01-19.66-.18-39.32.13-58.98.13-8.53,1.47-16.38,13.87-13.34,2.21.54,7.18-3.17,8.1-5.86,1.74-5.06,1.45-10.82,2.07-16.99,3.46-.18,6.65-.35,9.84-.52-9.01,12.77-7.76,17.43,3.42,27.81,10.6,9.84,20.09,6.04,30.21.33,2.81,6.41,5.62,12.82,8.44,19.23-5.64,2.2-11.28,4.39-16.91,6.59-2.81.92-5.62,1.84-8.43,2.76-1.82-1.25-3.63-2.5-5.45-3.75-.18-1.71-.36-3.43-.54-5.14-5.52-4.6-11.04-9.19-16.57-13.79l-5.69.34c-2.99,2.52-5.99,5.05-8.98,7.57-2.46,2.89-4.92,5.78-7.38,8.67,1.65,5.74,3.3,11.48,4.95,17.21l-.09-.08c3.04,2.74,6.09,5.49,9.13,8.23-1.11,1.76-2.22,3.52-3.33,5.28-1.86,2.88-3.72,5.76-5.58,8.64l-.06.08c-.89.96-1.78,1.93-2.67,2.89,0,0,0,0,0,0-.72.91-1.44,1.82-2.17,2.73-.97,1.03-1.94,2.07-2.91,3.1-1.13-1.01-2.26-2.01-3.39-3.02Z"/>
      <path class="cls-14" d="m163.68,169.34c-10.11,5.71-19.61,9.51-30.21-.33-11.18-10.38-12.43-15.04-3.42-27.81,22.73.24,32.38,8.31,33.62,28.13Z"/>
      <path class="cls-14" d="m304.04,144.8c.36,14.43-6.58,24.97-19.87,26.85-5.68.8-14.46-.92-17.24-4.8-2.45-3.41,1.24-11.48,2.78-17.34.54-2.04,2.74-3.65,4.19-5.45,10.05.25,20.1.5,30.14.74Z"/>
      <path class="cls-3" d="m228.56,208.77c-.16.79-.25,1.59-.27,2.4-5.61,6.71-11.22,13.42-16.83,20.14-.84-.18-1.67-.38-2.5-.61-2.87-2.71-5.73-5.42-8.6-8.13-4.73-1.6-9.45-3.19-14.18-4.79-10.2-1.2-20.4-2.39-30.6-3.59-.02-1.76-.03-3.51-.05-5.27l-.07.07c9.25-3.05,18.5-6.09,27.75-9.14,4.74,8.94,9.06,16.11,21.94,9.66,6.34-3.17,15.52-.68,23.42-.75Z"/>
      <path class="cls-20" d="m183.2,199.86c-9.25,3.05-18.5,6.09-27.75,9.14-.09-4.62-.17-9.23-.26-13.85,5.64-2.2,11.28-4.39,16.91-6.59,8.12-.58,13.38,1.65,11.09,11.3Z"/>
      <path class="cls-4" d="m96.04,236.89c1.13,1.01,2.26,2.01,3.39,3.02-.11.94-.38,1.84-.83,2.68-5.51,3.63-11.03,7.27-16.54,10.9-1.8.15-3.6.3-5.39.45-1.05-.05-2.09-.1-3.14-.15,2.36-2.96,4.72-5.91,7.19-8.99-2.03-1.58-4.05-3.16-6.06-4.73.06-1.06.13-2.12.19-3.18h21.2Z"/>
      <path class="cls-7" d="m390.33,127.44c-4.31,1.8-8.62,3.6-12.93,5.4-.88-.8-1.77-1.59-2.65-2.39-1.78-5.93-3.57-11.85-5.35-17.78.92.29,1.85.59,2.77.88.93.73,1.85,1.47,2.78,2.2,1.89,1.15,3.79,2.3,5.68,3.44.98.69,1.95,1.37,2.93,2.06,0,0-.04-.03-.04-.03.94.99,1.87,1.97,2.81,2.96,1.34,1.08,2.67,2.17,4.01,3.25Z"/>
      <path class="cls-4" d="m53.79,267.88c-8.09.58-11.83-3.18-11.25-11.26,4.69,0,9.39,0,14.08,0,.94,1.95,1.89,3.89,2.83,5.84-1.89,1.8-3.78,3.61-5.67,5.42Z"/>
      <path class="cls-7" d="m352.14,116.45c2.91-3.06,5.82-6.12,8.73-9.18,0,0,.03.02.03.02.94,5.47,1.88,10.95,2.82,16.42-3.86-2.42-7.72-4.84-11.57-7.27Z"/>
      <path class="cls-20" d="m363.72,123.71c-.94-5.48-1.88-10.95-2.82-16.42,2.83,1.79,5.66,3.59,8.49,5.38,1.78,5.93,3.57,11.85,5.35,17.78-3.68-2.25-7.35-4.49-11.03-6.74Z"/>
      <path class="cls-2" d="m59.46,262.46c-.94-1.95-1.89-3.89-2.83-5.84,0,0,0,0,0,0,.94-.94,1.88-1.87,2.81-2.81,4.69,0,9.39,0,14.08-.01,1.05.05,2.09.1,3.14.14-5.74,2.84-11.47,5.68-17.21,8.52Z"/>
      <path class="cls-4" d="m62.77,177.78c1.5.75,2.6,1.29,3.7,1.84-.94,1.12-1.71,2.52-2.9,3.21-.41.24-2.34-1.08-2.64-2-.22-.68,1.07-1.86,1.84-3.06Z"/>
      <path class="cls-4" d="m36.91,256.62c-1.92,1.68-3.85,3.35-5.77,5.03.05-1.68.09-3.35.14-5.03,1.88,0,3.76,0,5.64,0Z"/>
      <path class="cls-4" d="m81.99,141.12c1.85,1.76,3.69,3.51,5.54,5.27-1.13.76-2.26,1.51-3.39,2.27-.73-2.5-1.45-5.01-2.18-7.51,0,0,.03-.03.03-.03Z"/>
      <path class="cls-3" d="m236.89,189.03c-1.22-.35-2.44-.71-3.66-1.06,1.22.35,2.45.69,3.67,1.04,0,0-.02.02-.02.02Z"/>
      <path class="cls-4" d="m48.18,203.1c.7.99,1.41,1.98,2.11,2.97-.7-.99-1.41-1.98-2.11-2.97h0Z"/>
      <path class="cls-4" d="m59.45,253.81c-.94.94-1.88,1.87-2.81,2.81.94-.94,1.88-1.87,2.81-2.81Z"/>
      <path class="cls-7" d="m394.8,132.22c-1.2,1.14-2.4,2.29-3.6,3.43.08-2.37.17-4.74.25-7.11,1.12,1.22,2.23,2.45,3.35,3.68Z"/>
      <path class="cls-20" d="m374.94,115.75c-.93-.73-1.85-1.47-2.78-2.2.93.73,1.85,1.47,2.78,2.2Z"/>
      <path class="cls-20" d="m383.55,121.25c-.98-.69-1.95-1.37-2.93-2.06.98.69,1.95,1.37,2.93,2.06Z"/>
      <path class="cls-20" d="m386.32,124.18c-.94-.99-1.87-1.97-2.81-2.96.94.99,1.87,1.97,2.81,2.96Z"/>
      <path class="cls-11" d="m65.07,158.03c-.78-.78-1.56-1.57-2.34-2.34.78.78,1.56,1.56,2.34,2.34Z"/>
      <path class="cls-8" d="m98.6,242.59c.44-.84.72-1.73.83-2.68.97-1.03,1.94-2.07,2.91-3.1.72-.91,1.44-1.82,2.17-2.73,0,0,0,0,0,0,.89-.96,1.78-1.93,2.67-2.89,0,0,.06-.08.06-.08,8.75,1.57,6.37-4.05,5.58-8.64,1.11-1.76,2.22-3.52,3.33-5.28,1.36-1.36,2.72-2.72,4.08-4.07-4.4-1.39-8.81-2.77-13.21-4.16,0,0,.09.08.09.08-1.65-5.74-3.3-11.48-4.95-17.21,2.46-2.89,4.92-5.78,7.38-8.67,2.99-2.52,5.99-5.05,8.98-7.57,1.9-.11,3.8-.22,5.69-.34-.64,2.64-1.28,5.29-1.78,7.39,6.23,2.17,12.29,4.29,18.35,6.4.18,1.71.36,3.43.54,5.14.89,2.31,1.77,4.62,2.66,6.93.93-1.06,1.86-2.12,2.79-3.17,2.81-.92,5.62-1.84,8.43-2.76.09,4.62.17,9.23.26,13.85,0,0,.07-.07.07-.07-4.8.87-9.6,1.74-14.4,2.62l-.65-1.17-.53.53,1.17.65c-1.88,4.49-3.76,8.97-5.64,13.46-1.8.25-3.59.49-5.39.74-1.93.99-3.85,1.98-5.78,2.97-.47,1.71-.4,4.02-1.5,5.04-22.19,20.42-15.87,38.27-6.53,60.07,5.52,12.88,16.39,16.13,28.5,12.95,6.82-1.79,17.84-7.24,17.93-11.26.28-11.99,7.42-26.69-8.7-35.64-13.01-7.22-17.6-19.55-15.78-34.23,5.78-3.82,11.56-7.64,17.34-11.46,10.2,1.2,20.4,2.39,30.6,3.59,3.22,4.66,6.43,9.33,11.85,17.18,1.38-7.34,1.85-9.86,2.33-12.39,2.87,2.71,5.73,5.42,8.6,8.13.65,2.98,1.31,5.97,1.96,8.95-5.18,12.4-15.38,19.52-26.78,25.31-11.63,5.9-5.42,16.46-5.68,24.83-.08,2.71,6.85,5.65,10.57,8.48,7.5,2.87,15.01,5.73,22.51,8.6,5.64.94,11.28,1.88,16.92,2.81.95-.02,1.89-.04,2.84-.06,16.52,5.81,31.83,4.73,45.12-7.9,10.07-7.89,10.08-18.79,8.99-30.17,14.53-4.08,14.29,5.92,13.46,14.97-.47,5.17-3.34,10.12-5.14,15.17-2.1,3.63-4.2,7.25-6.3,10.88-3.72,2.22-7.43,4.45-11.15,6.67-.99.7-1.97,1.4-2.96,2.11-1.81.26-3.62.52-5.43.79-19.7-.3-39.4-.59-59.1-.89-4.58-.94-9.17-1.88-13.75-2.82-10.95-7.81-22.13-11.91-34.19-2.16l-8.57,4.84c-10.29-.63-20.58-1.27-30.88-1.9-.78-.49-1.63-.72-2.55-.7-6.61-8.53-13.23-17.06-19.84-25.59-1.12-5.52-2.25-11.04-3.37-16.55-.66-7.48-1.32-14.96-1.98-22.44,1.65-3.77,3.3-7.54,4.95-11.31Zm12.97-53.18l-.46,4.54c3.84.67,7.68,1.33,11.51,2-.07-2,.15-5.66-.27-5.73-3.52-.64-7.17-.63-10.78-.81Zm45.27,35.44c-.78-.34-1.56-.68-2.35-1.01-.34.78-1.1,1.74-.89,2.31.21.56,1.44.72,2.22,1.06.34-.78.67-1.56,1.01-2.35Z"/>
      <path class="cls-19" d="m279.38,205.67c1.12-6.27,1.04-13.09,3.63-18.67,4.51-9.7,13.21-15.02,23.87-11.79,9.62,2.91,19.02,10.86,16.31,20.69-2.28,8.23-11.82,14.8-19.05,21.07-1.96,1.7-7.17-.36-10.89-.69-3.65-2.55-7.31-5.1-10.96-7.66l-2.91-2.94Z"/>
      <path class="cls-6" d="m189.02,298.26c-3.72-2.83-10.65-5.76-10.57-8.48.26-8.37-5.95-18.92,5.68-24.83,11.4-5.79,21.6-12.91,26.78-25.31.18-2.78.36-5.56.54-8.35,5.61-6.71,11.22-13.42,16.83-20.14,5.06,11.02,2.06,20.21-4.9,29.7-6.1,8.31-9.3,18.78-15.58,26.9-3.02,3.9-10.2,4.58-15.63,5.54-12.1,6.57-5.34,15.95-3.14,24.96Z"/>
      <path class="cls-14" d="m208.79,321.23c19.7.3,39.4.59,59.1.89,1.68,4.55,3.35,9.11,5.21,14.16-10.29,7.89-51.37,11.39-59.6,2.89-3.75-3.87-3.27-11.83-4.71-17.94Z"/>
      <path class="cls-14" d="m93.66,253.9c.66,7.48,1.32,14.96,1.98,22.44-14.96-1.01-29.91-2.01-44.87-3.02,1.01-1.81,2.01-3.63,3.02-5.44,1.89-1.81,3.78-3.61,5.67-5.42,5.74-2.84,11.47-5.68,17.21-8.52,1.8-.15,3.6-.3,5.39-.45,3.87.14,7.73.27,11.6.4Z"/>
      <path class="cls-15" d="m121.4,319.19c10.29.63,20.58,1.27,30.88,1.9.86,3.97,1.72,7.95,2.98,13.76-12.04-4.65-17.02,17.86-28.79,5.65-4.36-4.53-3.53-14.06-5.06-21.31Z"/>
      <path class="cls-6" d="m276.42,301.72c-13.29,12.63-28.6,13.71-45.12,7.9,9.15-13.97,24.12-3.86,35.62-8.46,2.67-1.07,6.31.31,9.5.56Z"/>
      <path class="cls-6" d="m282.29,208.61c3.66,2.55,7.31,5.11,10.96,7.66,1.65,4.14,3.31,8.28,4.97,12.43-6.51,1.04-13.01,2.08-23.54,3.77,3.24-10.15,5.43-17,7.61-23.85Z"/>
      <path class="cls-15" d="m160.85,316.25c12.06-9.75,23.24-5.65,34.19,2.16-11.36-1.36-23.4,8.08-34.19-2.16Z"/>
      <path class="cls-6" d="m99.01,292.89c6.61,8.53,13.23,17.06,19.84,25.59-4.8-1.34-9.59-2.68-15-4.19-1.38,1.72-3.18,3.98-7.48,9.37,1.1-12.8,1.87-21.79,2.64-30.78Z"/>
      <path class="cls-6" d="m228.46,309.68c-5.64-.94-11.28-1.88-16.92-2.81,3.27-2.65,6.55-5.3,9.82-7.95,2.37,3.59,4.73,7.18,7.1,10.76Z"/>
      <path class="cls-14" d="m287.44,312.56c2.1-3.63,4.2-7.25,6.3-10.88,8.2,7.42,1.26,12.78-3.05,21.88-1.65-5.59-2.45-8.3-3.25-11Z"/>
      <path class="cls-13" d="m244.49,462.24c-1.39-.87-2.41-1.51-3.44-2.15,1.07-1.01,2.01-2.29,3.27-2.88.41-.19,2.24,1.33,2.35,2.2.1.78-1.29,1.74-2.19,2.83Z"/>
      <path class="cls-14" d="m273.32,321.33c.99-.7,1.97-1.4,2.96-2.11-.99.7-1.97,1.4-2.96,2.11Z"/>
      <path class="cls-12" d="m132.01,441.92c-.4,1.69-.8,3.39-1.21,5.08-.78-.2-1.57-.4-2.35-.6.46-1.68.92-3.36,1.38-5.04.73.19,1.46.37,2.18.56Z"/>
      <path class="cls-20" d="m140.78,189.02c-6.06-2.11-12.12-4.23-18.35-6.4.51-2.1,1.15-4.74,1.78-7.39,5.52,4.6,11.04,9.19,16.57,13.79Z"/>
      <path class="cls-20" d="m107.02,208.95c4.4,1.39,8.81,2.77,13.21,4.16-1.36,1.36-2.72,2.72-4.08,4.07-3.04-2.74-6.09-5.49-9.13-8.23Z"/>
      <path class="cls-20" d="m102.16,191.82c1.65,5.74,3.3,11.48,4.95,17.21-1.65-5.74-3.3-11.48-4.95-17.21Z"/>
      <path class="cls-20" d="m118.52,175.57c-2.99,2.52-5.99,5.05-8.98,7.57,2.99-2.52,5.99-5.05,8.98-7.57Z"/>
      <path class="cls-20" d="m112.82,222.47c.78,4.59,3.17,10.21-5.58,8.64,1.86-2.88,3.72-5.76,5.58-8.64Z"/>
      <path class="cls-20" d="m146.77,197.92c-.93,1.06-1.86,2.12-2.79,3.17-.89-2.31-1.77-4.62-2.66-6.93,1.82,1.25,3.63,2.5,5.45,3.75Z"/>
      <path class="cls-20" d="m104.51,234.08c-.72.91-1.44,1.82-2.17,2.73.72-.91,1.44-1.82,2.17-2.73Z"/>
      <path class="cls-20" d="m107.18,231.19c-.89.96-1.78,1.93-2.67,2.89.89-.96,1.78-1.93,2.67-2.89Z"/>
      <path class="cls-20" d="m141.13,211.55c4.8-.87,9.6-1.74,14.4-2.62.02,1.76.03,3.51.05,5.27-5.78,3.82-11.56,7.64-17.34,11.46-.92-.22-1.83-.43-2.75-.65,1.88-4.49,3.76-8.97,5.64-13.46Z"/>
      <path class="cls-20" d="m200.36,222.57c-.47,2.53-.95,5.06-2.33,12.39-5.42-7.86-8.63-12.52-11.85-17.18,4.73,1.6,9.45,3.19,14.18,4.79Z"/>
      <path class="cls-20" d="m211.45,231.31c-.18,2.78-.36,5.56-.54,8.35-.65-2.98-1.31-5.97-1.96-8.95.83.22,1.66.42,2.5.61Z"/>
      <path class="cls-2" d="m93.66,253.9c-3.87-.13-7.73-.27-11.6-.4,5.51-3.64,11.03-7.27,16.54-10.9-1.65,3.77-3.3,7.54-4.95,11.31Z"/>
      <path class="cls-13" d="m135.49,225.01c.92.22,1.83.43,2.75.65-1.82,14.68,2.77,27,15.78,34.23,16.12,8.95,8.98,23.65,8.7,35.64-.09,4.01-11.12,9.47-17.93,11.26-12.11,3.18-22.98-.07-28.5-12.95-9.34-21.8-15.65-39.65,6.53-60.07,1.11-1.02,1.03-3.33,1.5-5.04,1.93-.99,3.85-1.98,5.78-2.97,1.8-.25,3.59-.49,5.39-.74Z"/>
      <path class="cls-20" d="m111.57,189.41c3.61.18,7.25.16,10.78.81.43.08.2,3.73.27,5.73-3.84-.67-7.68-1.33-11.51-2l.46-4.54Z"/>
      <path class="cls-20" d="m156.85,224.86c-.34.78-.67,1.56-1.01,2.35-.78-.34-2.01-.5-2.22-1.06-.22-.57.55-1.52.89-2.31.78.34,1.56.68,2.35,1.02Z"/>
      <path class="cls-20" d="m130.1,225.74c-1.93.99-3.85,1.98-5.78,2.97,1.93-.99,3.85-1.98,5.78-2.97Z"/>
      <polygon class="cls-20" points="141.13 211.55 139.95 210.9 140.48 210.37 141.13 211.55"/>
    </g>
  </g>
</svg>